<svg width="358" height="357" viewBox="0 0 358 357" fill="none" xmlns="http://www.w3.org/2000/svg">
<path d="M226.809 158.72C302.062 161.118 357.307 169.051 357.307 178.468C357.307 187.886 302.062 195.819 226.809 198.217C278.326 253.124 311.78 297.798 305.121 304.457C298.462 311.116 253.788 277.662 198.881 226.145C196.483 301.398 188.55 356.643 179.132 356.643C169.715 356.643 161.781 301.398 159.384 226.145C104.477 277.662 59.8028 311.116 53.1437 304.457C46.4846 297.798 79.9387 253.124 131.456 198.217C56.2023 195.819 0.95752 187.886 0.95752 178.468C0.95752 169.051 56.2023 161.118 131.456 158.72C79.9387 103.813 46.4846 59.1389 53.1436 52.4798C59.8027 45.8208 104.477 79.2749 159.384 130.792C161.781 55.5385 169.715 0.29364 179.132 0.29364C188.55 0.29364 196.483 55.5384 198.881 130.792C253.788 79.2748 298.462 45.8207 305.121 52.4797C311.78 59.1388 278.326 103.813 226.809 158.72Z" fill="#5FB4A2"/>
</svg>
