<svg width="501" height="500" viewBox="0 0 501 500" fill="none" xmlns="http://www.w3.org/2000/svg">
<path d="M306.312 128.333V118.333H316.312V128.333H306.312Z" fill="#203A4C"/>
<path d="M306.312 315.833V305.833H316.312V315.833H306.312Z" fill="#5FB4A2"/>
<path d="M306.312 65.834V55.834H316.312V65.834H306.312Z" fill="#5FB4A2"/>
<path d="M306.312 253.333V243.333H316.312V253.333H306.312Z" fill="#203A4C"/>
<path d="M306.312 190.833V180.833H316.312V190.833H306.312Z" fill="#5FB4A2"/>
<path d="M306.312 378.333V368.333H316.312V378.333H306.312Z" fill="#203A4C"/>
<path d="M306.312 440.833V430.833H316.312V440.833H306.312Z" fill="#5FB4A2"/>
<path d="M118.812 128.333V118.333H128.812V128.333H118.812Z" fill="#5FB4A2"/>
<path d="M118.812 315.833V305.833H128.812V315.833H118.812Z" fill="#203A4C"/>
<path d="M118.812 65.834V55.834H128.812V65.834H118.812Z" fill="#203A4C"/>
<path d="M118.812 253.333V243.333H128.812V253.333H118.812Z" fill="#5FB4A2"/>
<path d="M118.812 190.833V180.833H128.812V190.833H118.812Z" fill="#203A4C"/>
<path d="M118.812 378.333V368.333H128.812V378.333H118.812Z" fill="#5FB4A2"/>
<path d="M118.812 440.833V430.833H128.812V440.833H118.812Z" fill="#203A4C"/>
<path d="M431.312 128.333V118.333H441.312V128.333H431.312Z" fill="#203A4C"/>
<path d="M431.312 315.833V305.833H441.312V315.833H431.312Z" fill="#5FB4A2"/>
<path d="M431.312 65.834V55.834H441.312V65.834H431.312Z" fill="#5FB4A2"/>
<path d="M431.312 253.333V243.333H441.312V253.333H431.312Z" fill="#203A4C"/>
<path d="M431.312 190.833V180.833H441.312V190.833H431.312Z" fill="#5FB4A2"/>
<path d="M431.312 378.333V368.333H441.312V378.333H431.312Z" fill="#203A4C"/>
<path d="M431.312 440.833V430.833H441.312V440.833H431.312Z" fill="#5FB4A2"/>
<path d="M243.812 128.333V118.333H253.812V128.333H243.812Z" fill="#5FB4A2"/>
<path d="M243.812 315.833V305.833H253.812V315.833H243.812Z" fill="#203A4C"/>
<path d="M243.812 65.834V55.834H253.812V65.834H243.812Z" fill="#203A4C"/>
<path d="M243.812 253.333V243.333H253.812V253.333H243.812Z" fill="#5FB4A2"/>
<path d="M243.812 190.833V180.833H253.812V190.833H243.812Z" fill="#203A4C"/>
<path d="M243.812 378.333V368.333H253.812V378.333H243.812Z" fill="#5FB4A2"/>
<path d="M243.812 440.833V430.833H253.812V440.833H243.812Z" fill="#203A4C"/>
<path d="M56.3125 128.333V118.333H66.3125V128.333H56.3125Z" fill="#203A4C"/>
<path d="M56.3125 315.833V305.833H66.3125V315.833H56.3125Z" fill="#5FB4A2"/>
<path d="M56.3125 65.834V55.834H66.3125V65.834H56.3125Z" fill="#5FB4A2"/>
<path d="M56.3125 253.333V243.333H66.3125V253.333H56.3125Z" fill="#203A4C"/>
<path d="M56.3125 190.833V180.833H66.3125V190.833H56.3125Z" fill="#5FB4A2"/>
<path d="M56.3125 378.333V368.333H66.3125V378.333H56.3125Z" fill="#203A4C"/>
<path d="M56.3125 440.833V430.833H66.3125V440.833H56.3125Z" fill="#5FB4A2"/>
<path d="M368.812 128.333V118.333H378.812V128.333H368.812Z" fill="#5FB4A2"/>
<path d="M368.812 315.833V305.833H378.812V315.833H368.812Z" fill="#203A4C"/>
<path d="M368.812 65.834V55.834H378.812V65.834H368.812Z" fill="#203A4C"/>
<path d="M368.812 253.333V243.333H378.812V253.333H368.812Z" fill="#5FB4A2"/>
<path d="M368.812 190.833V180.833H378.812V190.833H368.812Z" fill="#203A4C"/>
<path d="M368.812 378.333V368.333H378.812V378.333H368.812Z" fill="#5FB4A2"/>
<path d="M368.812 440.833V430.833H378.812V440.833H368.812Z" fill="#203A4C"/>
<path d="M181.312 128.333V118.333H191.312V128.333H181.312Z" fill="#203A4C"/>
<path d="M181.312 315.833V305.833H191.312V315.833H181.312Z" fill="#5FB4A2"/>
<path d="M181.312 65.834V55.834H191.312V65.834H181.312Z" fill="#5FB4A2"/>
<path d="M181.312 253.333V243.333H191.312V253.333H181.312Z" fill="#203A4C"/>
<path d="M181.312 190.833V180.833H191.312V190.833H181.312Z" fill="#5FB4A2"/>
<path d="M181.312 378.333V368.333H191.312V378.333H181.312Z" fill="#203A4C"/>
<path d="M181.312 440.833V430.833H191.312V440.833H181.312Z" fill="#5FB4A2"/>
<path d="M5.48242 0V5H0.482422V0H5.48242Z" fill="#5FB4A2"/>
<path d="M0.482422 65.834V55.834H5.48242V65.834H0.482422Z" fill="#203A4C"/>
<path d="M0.482422 128.333V118.333H5.48242V128.333H0.482422Z" fill="#5FB4A2"/>
<path d="M0.482422 190.833V180.833H5.48242V190.833H0.482422Z" fill="#203A4C"/>
<path d="M0.482422 253.333V243.333H5.48242V253.333H0.482422Z" fill="#5FB4A2"/>
<path d="M0.482422 315.833V305.833H5.48242V315.833H0.482422Z" fill="#203A4C"/>
<path d="M0.482422 378.333V368.333H5.48242V378.333H0.482422Z" fill="#5FB4A2"/>
<path d="M0.482422 440.833V430.833H5.48242V440.833H0.482422Z" fill="#203A4C"/>
<path d="M5.48242 500H0.482422V495H5.48242V500Z" fill="#5FB4A2"/>
<path d="M66.3125 500H56.3125V495H66.3125V500Z" fill="#203A4C"/>
<path d="M128.812 500H118.812V495H128.812V500Z" fill="#5FB4A2"/>
<path d="M191.312 500H181.312V495H191.312V500Z" fill="#203A4C"/>
<path d="M253.812 500H243.812V495H253.812V500Z" fill="#5FB4A2"/>
<path d="M316.312 500H306.312V495H316.312V500Z" fill="#203A4C"/>
<path d="M378.812 500H368.812V495H378.812V500Z" fill="#5FB4A2"/>
<path d="M441.312 500H431.312V495H441.312V500Z" fill="#203A4C"/>
<path d="M500.482 495V500H495.482V495H500.482Z" fill="#5FB4A2"/>
<path d="M500.482 430.833V440.833H495.482V430.833H500.482Z" fill="#203A4C"/>
<path d="M500.482 368.333V378.333H495.482V368.333H500.482Z" fill="#5FB4A2"/>
<path d="M500.482 305.833V315.833H495.482V305.833H500.482Z" fill="#203A4C"/>
<path d="M500.482 243.333V253.333H495.482V243.333H500.482Z" fill="#5FB4A2"/>
<path d="M500.482 180.833V190.833H495.482V180.833H500.482Z" fill="#203A4C"/>
<path d="M500.482 118.333V128.333H495.482V118.333H500.482Z" fill="#5FB4A2"/>
<path d="M500.482 55.834V65.834H495.482V55.834H500.482Z" fill="#203A4C"/>
<path d="M495.482 0V5H500.482V0H495.482Z" fill="#5FB4A2"/>
<path d="M431.312 0V5H441.312V0H431.312Z" fill="#203A4C"/>
<path d="M368.812 0V5H378.812V0H368.812Z" fill="#5FB4A2"/>
<path d="M306.312 0V5H316.312V0H306.312Z" fill="#203A4C"/>
<path d="M243.812 0V5H253.812V0H243.812Z" fill="#5FB4A2"/>
<path d="M181.312 0V5H191.312V0H181.312Z" fill="#203A4C"/>
<path d="M118.812 0V5H128.812V0H118.812Z" fill="#5FB4A2"/>
<path d="M56.3125 0V5H66.3125V0H56.3125Z" fill="#203A4C"/>
</svg>
